<svg width="26" height="26" viewBox="0 0 26 26" fill="none" xmlns="http://www.w3.org/2000/svg">
<g clip-path="url(#clip0_68308_42)">
<path d="M7.92129 9.75H6.16196L3.79163 16.25H5.53254L6.01571 14.9218H8.06754L8.55071 16.25H10.2916L7.92129 9.75ZM6.41113 13.8385L7.04163 12.1117L7.67213 13.8396L6.41113 13.8385ZM15.9726 9.75H12.181V16.25H13.806V14.0833H15.9726C16.1871 14.0873 16.4002 14.048 16.5992 13.9677C16.7981 13.8875 16.9788 13.7679 17.1305 13.6162C17.2822 13.4645 17.4018 13.2838 17.482 13.0849C17.5623 12.8859 17.6016 12.6728 17.5976 12.4583V11.375C17.6016 11.1605 17.5623 10.9474 17.482 10.7485C17.4018 10.5495 17.2822 10.3688 17.1305 10.2171C16.9788 10.0654 16.7981 9.94587 16.5992 9.86561C16.4002 9.78535 16.1871 9.74603 15.9726 9.75ZM15.9726 12.4583H13.806V11.375H15.9726V12.4583ZM19.5 9.75H21.125V16.25H19.5V9.75Z" fill="white"/>
<path d="M23.8333 6.5V19.5H2.16667V6.5H23.8333ZM23.8333 4.33334H2.16667C1.59203 4.33334 1.04093 4.56161 0.634602 4.96794C0.228273 5.37427 0 5.92537 0 6.5L0 19.5C0 20.0746 0.228273 20.6257 0.634602 21.0321C1.04093 21.4384 1.59203 21.6667 2.16667 21.6667H23.8333C24.408 21.6667 24.9591 21.4384 25.3654 21.0321C25.7717 20.6257 26 20.0746 26 19.5V6.5C26 5.92537 25.7717 5.37427 25.3654 4.96794C24.9591 4.56161 24.408 4.33334 23.8333 4.33334Z" fill="white"/>
</g>
<defs>
<clipPath id="clip0_68308_42">
<rect width="26" height="26" fill="white"/>
</clipPath>
</defs>
</svg>
