<svg width="24" height="24" viewBox="0 0 24 24" fill="none" xmlns="http://www.w3.org/2000/svg">
<path d="M18.2556 7.96918C17.9244 7.96918 17.6004 7.99678 17.2848 8.04838C16.4976 5.47438 14.058 3.59998 11.1708 3.59998C7.644 3.59998 4.7868 6.39358 4.7868 9.83878C4.7868 10.1484 4.8108 10.4508 4.8552 10.746C4.68435 10.7255 4.51247 10.7147 4.3404 10.7136C1.9428 10.7136 0 12.6144 0 14.9556C0 17.2992 1.9428 19.2 4.3404 19.2H18.2556C21.4272 19.2 24 16.6848 24 13.584C24 10.4808 21.4272 7.96918 18.2556 7.96918ZM13.6452 13.1412C13.0524 13.9848 10.5084 16.608 10.4004 16.7172C10.2756 16.872 9.9312 17.13 9.6048 16.9164C9.51 16.8552 9.3984 16.734 9.3984 16.4916C9.3984 16.26 9.504 16.0224 9.516 15.9972L10.7556 13.2528C10.524 13.1592 10.1232 12.9996 9.8136 12.864L9.732 12.8292C9.4176 12.696 9.0264 12.5292 9.0264 12.1008C9.0264 11.8944 9.1236 11.6532 9.3252 11.37C9.9192 10.524 12.462 7.90318 12.5712 7.79158C12.6948 7.63918 13.0392 7.38118 13.3668 7.59238C13.4604 7.65358 13.572 7.77718 13.572 8.01718C13.572 8.24878 13.4664 8.48638 13.4544 8.51398L12.2136 11.256C12.4476 11.3496 12.8472 11.5116 13.158 11.6448L13.2396 11.6796C13.554 11.8128 13.9452 11.9796 13.9452 12.4104C13.9452 12.6168 13.8468 12.8556 13.6452 13.1412Z" fill="white"/>
</svg>
