<svg width="26" height="26" viewBox="0 0 26 26" fill="none" xmlns="http://www.w3.org/2000/svg">
<path d="M8.66669 11.9167C8.97363 11.9167 9.2311 11.8127 9.4391 11.6047C9.6471 11.3967 9.75074 11.1396 9.75002 10.8333C9.75002 10.5264 9.64602 10.2689 9.43802 10.0609C9.23002 9.85292 8.97291 9.74928 8.66669 9.75C8.35974 9.75 8.10227 9.854 7.89427 10.062C7.68627 10.27 7.58263 10.5271 7.58335 10.8333C7.58335 11.1403 7.68735 11.3977 7.89535 11.6057C8.10335 11.8137 8.36046 11.9174 8.66669 11.9167ZM13 11.9167C13.307 11.9167 13.5644 11.8127 13.7724 11.6047C13.9804 11.3967 14.0841 11.1396 14.0834 10.8333C14.0834 10.5264 13.9794 10.2689 13.7714 10.0609C13.5634 9.85292 13.3062 9.74928 13 9.75C12.6931 9.75 12.4356 9.854 12.2276 10.062C12.0196 10.27 11.916 10.5271 11.9167 10.8333C11.9167 11.1403 12.0207 11.3977 12.2287 11.6057C12.4367 11.8137 12.6938 11.9174 13 11.9167ZM17.3334 11.9167C17.6403 11.9167 17.8978 11.8127 18.1058 11.6047C18.3138 11.3967 18.4174 11.1396 18.4167 10.8333C18.4167 10.5264 18.3127 10.2689 18.1047 10.0609C17.8967 9.85292 17.6396 9.74928 17.3334 9.75C17.0264 9.75 16.7689 9.854 16.5609 10.062C16.3529 10.27 16.2493 10.5271 16.25 10.8333C16.25 11.1403 16.354 11.3977 16.562 11.6057C16.77 11.8137 17.0271 11.9174 17.3334 11.9167ZM2.16669 23.8333V4.33333C2.16669 3.7375 2.37902 3.22725 2.80369 2.80258C3.22835 2.37792 3.73824 2.16594 4.33335 2.16667H21.6667C22.2625 2.16667 22.7728 2.379 23.1974 2.80367C23.6221 3.22833 23.8341 3.73822 23.8334 4.33333V17.3333C23.8334 17.9292 23.621 18.4394 23.1964 18.8641C22.7717 19.2887 22.2618 19.5007 21.6667 19.5H6.50002L2.16669 23.8333ZM5.57919 17.3333H21.6667V4.33333H4.33335V18.5521L5.57919 17.3333Z" fill="white"/>
</svg>
